<svg width="625" height="670" viewBox="0 0 625 670" fill="none" xmlns="http://www.w3.org/2000/svg">
<path d="M141.38 439.57C144.52 433.29 146.09 426.02 146.09 417.76C146.09 409.5 144.52 402.06 141.38 395.95C138.24 389.85 133.93 384.73 128.46 380.6C122.98 376.47 116.57 373.42 109.21 371.44C101.85 369.47 93.9501 368.48 85.5101 368.48H13.62C12.9 368.48 12.54 368.84 12.54 369.56C12.54 369.92 12.72 370.28 13.08 370.64C16.31 371.9 18.33 373.87 19.14 376.56C19.95 379.25 20.3501 382.13 20.3501 385.18V521.97C20.3501 525.02 19.95 527.89 19.14 530.59C18.33 533.28 16.31 535.26 13.08 536.51C12.72 536.87 12.54 537.23 12.54 537.59C12.54 538.31 12.9 538.67 13.62 538.67H44.3201C44.8601 538.67 45.1301 538.31 45.1301 537.59C45.1301 537.23 44.95 536.88 44.59 536.51C41.36 535.26 39.34 533.28 38.53 530.59C37.72 527.9 37.3201 525.03 37.3201 521.97V470.27C37.3201 468.66 38.13 467.85 39.74 467.85H85.52C93.96 467.85 101.85 466.82 109.22 464.76C116.58 462.7 123 459.55 128.47 455.33C133.94 451.12 138.25 445.86 141.39 439.58L141.38 439.57ZM122.26 436.34C120.01 442.09 117.01 447.03 113.24 451.15C109.47 455.28 104.98 458.56 99.78 460.98C94.57 463.4 89.01 464.71 83.08 464.88H39.7301C38.1101 464.88 37.31 464.07 37.31 462.46V385.18C37.31 382.31 37.6701 379.3 38.3901 376.16C39.1101 373.02 40.5401 371.45 42.7001 371.45H83.09C89.01 371.63 94.5801 372.89 99.7901 375.22C104.99 377.55 109.48 380.79 113.25 384.91C117.02 389.04 120.02 393.89 122.27 399.45C124.51 405.02 125.64 411.12 125.64 417.76C125.64 424.4 124.52 430.6 122.27 436.34H122.26Z" fill="#CC922F"/>
<path d="M296.61 368.48H267.53C266.81 368.48 266.45 368.84 266.45 369.56C266.45 369.92 266.63 370.28 266.99 370.64C270.22 371.9 273.27 374.06 276.15 377.1C279.02 380.15 280.46 383.2 280.46 386.26V488.85C280.46 495.5 279.25 501.78 276.83 507.7C274.41 513.62 271.08 518.74 266.87 523.05C262.65 527.36 257.62 530.77 251.79 533.28C245.95 535.8 239.54 537.05 232.54 537.05C225.54 537.05 219.12 535.84 213.29 533.42C207.45 531 202.47 527.63 198.35 523.32C194.22 519.01 190.99 513.9 188.66 507.97C186.33 502.05 185.16 495.68 185.16 488.85V385.18C185.16 382.13 185.56 379.26 186.37 376.56C187.18 373.87 189.2 371.89 192.43 370.64C192.79 370.28 192.97 369.93 192.97 369.56C192.97 368.85 192.7 368.48 192.16 368.48H161.46C160.74 368.48 160.38 368.84 160.38 369.56C160.38 369.92 160.56 370.28 160.92 370.64C164.15 371.9 166.17 373.87 166.98 376.56C167.79 379.25 168.19 382.13 168.19 385.18V488.85C168.19 495.68 169.67 502.23 172.63 508.51C175.59 514.79 179.77 520.36 185.15 525.2C190.54 529.87 197.67 533.5 206.56 536.1C215.45 538.7 224.2 540 232.81 540C240.17 540 246.95 538.75 253.14 536.23C259.33 533.72 264.67 530.17 269.16 525.59C273.64 521.01 277.14 515.58 279.66 509.3C282.17 503.02 283.43 496.2 283.43 488.84V386.25C283.43 383.2 284.87 380.15 287.74 377.09C290.61 374.04 293.66 371.88 296.9 370.63C297.26 370.46 297.44 370.09 297.44 369.55C297.44 368.84 297.17 368.47 296.63 368.47L296.61 368.48Z" fill="#CC922F"/>
<path d="M466.52 536.77C462.57 536.41 458.93 534.62 455.62 531.39C452.3 528.16 448.98 524.12 445.66 519.27C442.34 514.42 438.84 509.08 435.16 503.25C431.48 497.42 427.31 491.72 422.64 486.15C417.97 480.59 412.77 475.47 407.02 470.8C401.27 466.13 394.54 462.54 386.82 460.03C386.28 459.86 386.01 459.72 386.01 459.63C386.01 459.54 386.19 459.49 386.55 459.49H387.63C395.71 459.49 403.38 458.59 410.65 456.8C417.92 455.01 424.34 452.22 429.9 448.45C435.46 444.68 439.91 439.93 443.23 434.18C446.55 428.44 448.21 421.71 448.21 413.99C448.21 406.27 446.55 399.31 443.23 393.66C439.91 388.01 435.46 383.3 429.9 379.52C424.33 375.75 417.92 372.97 410.65 371.17C403.38 369.38 395.71 368.48 387.63 368.48H315.74C315.02 368.48 314.66 368.84 314.66 369.56C314.66 369.92 314.84 370.28 315.2 370.64C318.43 371.9 320.45 373.87 321.26 376.56C322.07 379.25 322.47 382.13 322.47 385.18V521.97C322.47 525.02 322.07 527.89 321.26 530.59C320.45 533.28 318.43 535.26 315.2 536.51C314.84 536.87 314.66 537.23 314.66 537.59C314.66 538.31 315.02 538.67 315.74 538.67H346.44C346.98 538.67 347.25 538.31 347.25 537.59C347.25 537.23 347.07 536.88 346.71 536.51C343.48 535.26 341.46 533.28 340.65 530.59C339.84 527.9 339.44 525.03 339.44 521.97V461.65C339.44 460.21 340.25 459.5 341.86 459.5H368.25C375.07 460.22 381.13 462.33 386.43 465.83C391.72 469.33 396.48 473.64 400.7 478.75C404.92 483.87 408.73 489.39 412.15 495.31C415.56 501.23 418.83 507.02 421.98 512.68C425.12 518.34 428.26 523.36 431.4 527.76C434.54 532.16 437.82 535.43 441.23 537.59C442.13 538.31 443.2 538.67 444.46 538.67H466.54C466.9 538.67 467.08 538.49 467.08 538.13V537.32C467.08 536.96 466.9 536.78 466.54 536.78L466.52 536.77ZM341.85 456.53C340.23 456.53 339.43 455.72 339.43 454.11V385.18C339.43 382.31 339.74 379.3 340.37 376.16C341 373.02 342.48 371.45 344.81 371.45H385.2C391.12 371.63 396.69 372.8 401.9 374.95C407.1 377.1 411.59 380.02 415.36 383.7C419.13 387.38 422.13 391.78 424.38 396.89C426.62 402.01 427.75 407.7 427.75 413.99C427.75 420.28 426.63 425.75 424.38 430.95C422.13 436.16 419.13 440.6 415.36 444.28C411.59 447.96 407.1 450.88 401.9 453.03C396.69 455.18 391.13 456.35 385.2 456.53H341.85Z" fill="#CC922F"/>
<path d="M604.92 512H604.38C604.02 512 603.84 512.09 603.84 512.27C602.04 516.58 600.16 520.44 598.19 523.85C596.39 526.9 594.33 529.64 592 532.06C589.67 534.48 587.15 535.69 584.46 535.69H514.72C512.56 535.69 511.13 534.12 510.41 530.98C509.69 527.84 509.33 524.83 509.33 521.96V442.8C509.33 441.55 510.05 440.91 511.48 440.91H560.22C563.27 440.91 566.32 442.35 569.38 445.22C572.43 448.1 574.59 451.05 575.84 454.11C576.2 454.65 576.55 454.92 576.92 454.92C577.63 454.92 578 454.56 578 453.84V424.76C578 424.05 577.64 423.68 576.92 423.68C576.56 423.68 576.2 423.95 575.84 424.49C574.58 427.54 572.43 430.51 569.38 433.38C566.33 436.25 563.28 437.78 560.22 437.96H511.48C510.04 437.96 509.33 437.25 509.33 435.81V385.19C509.33 382.32 509.64 379.31 510.27 376.17C510.9 373.03 512.38 371.46 514.71 371.46H581.22C584.09 371.46 586.69 372.67 589.03 375.09C591.36 377.52 593.43 380.16 595.22 383.04C597.19 386.63 599.08 390.58 600.87 394.89C600.87 395.07 601.05 395.16 601.41 395.16H601.95C602.31 395.16 602.49 394.99 602.49 394.62L598.99 370.12C598.99 369.04 598.45 368.5 597.37 368.5H485.62C484.9 368.5 484.54 368.86 484.54 369.58C484.54 369.94 484.72 370.3 485.08 370.66C488.31 371.92 490.33 373.89 491.14 376.58C491.95 379.27 492.35 382.15 492.35 385.2V521.99C492.35 525.04 491.95 527.91 491.14 530.61C490.33 533.3 488.31 535.28 485.08 536.53C484.72 536.89 484.54 537.25 484.54 537.61C484.54 538.33 484.9 538.69 485.62 538.69H600.33C601.41 538.69 601.95 538.15 601.95 537.07L605.45 512.57C605.45 512.21 605.27 512.03 604.91 512.03L604.92 512Z" fill="#CC922F"/>
<path d="M127.02 600.16C130.32 598.35 134.02 597.45 138.12 597.45C144.29 597.45 149.37 599.43 153.37 603.38L156.69 599.98C154.47 597.57 151.75 595.75 148.52 594.52C145.29 593.29 141.75 592.68 137.89 592.68C132.78 592.68 128.2 593.79 124.16 596C120.11 598.22 116.93 601.29 114.62 605.22C112.31 609.15 111.15 613.54 111.15 618.41C111.15 623.28 112.31 627.68 114.62 631.6C116.93 635.53 120.11 638.6 124.16 640.82C128.21 643.04 132.76 644.14 137.82 644.14C141.39 644.14 144.78 643.59 148.01 642.48C151.24 641.37 154.03 639.78 156.39 637.71V618.41H151.26V635.47C147.65 638.07 143.24 639.37 138.03 639.37C133.93 639.37 130.25 638.45 126.97 636.62C123.69 634.79 121.11 632.28 119.23 629.1C117.35 625.92 116.41 622.35 116.41 618.4C116.41 614.45 117.35 610.87 119.23 607.67C121.11 604.47 123.7 601.96 127 600.15L127.02 600.16Z" fill="#CDCDC3"/>
<path d="M272.24 596C268.22 593.78 263.7 592.68 258.69 592.68C253.68 592.68 249.14 593.8 245.06 596.04C240.99 598.28 237.81 601.35 235.52 605.26C233.23 609.16 232.09 613.55 232.09 618.42C232.09 623.29 233.23 627.67 235.52 631.58C237.81 635.48 240.99 638.56 245.06 640.8C249.13 643.04 253.67 644.16 258.69 644.16C263.71 644.16 268.22 643.05 272.24 640.84C276.26 638.62 279.43 635.55 281.74 631.62C284.05 627.69 285.21 623.3 285.21 618.43C285.21 613.56 284.05 609.16 281.74 605.24C279.43 601.31 276.26 598.24 272.24 596.02V596ZM277.12 629.15C275.29 632.35 272.76 634.86 269.53 636.67C266.3 638.48 262.69 639.38 258.69 639.38C254.69 639.38 251.06 638.48 247.81 636.67C244.56 634.86 242 632.36 240.15 629.15C238.29 625.95 237.37 622.37 237.37 618.42C237.37 614.47 238.3 610.89 240.15 607.69C242 604.49 244.56 601.98 247.81 600.17C251.06 598.36 254.69 597.46 258.69 597.46C262.69 597.46 266.3 598.36 269.53 600.17C272.76 601.98 275.29 604.48 277.12 607.69C278.95 610.9 279.87 614.47 279.87 618.42C279.87 622.37 278.95 625.95 277.12 629.15Z" fill="#CDCDC3"/>
<path d="M367.62 593.11H362.27V643.71H395.96V639.09H367.62V593.11Z" fill="#CDCDC3"/>
<path d="M504.68 596.33C500.58 594.19 495.86 593.12 490.51 593.12H469.91V643.72H490.51C495.86 643.72 500.58 642.65 504.68 640.51C508.78 638.37 511.96 635.38 514.22 631.55C516.48 627.72 517.62 623.35 517.62 618.43C517.62 613.51 516.49 609.14 514.22 605.31C511.95 601.48 508.77 598.49 504.68 596.35V596.33ZM509.59 629.15C507.76 632.26 505.18 634.69 501.85 636.45C498.53 638.21 494.65 639.09 490.21 639.09H475.25V597.74H490.21C494.64 597.74 498.52 598.62 501.85 600.38C505.18 602.14 507.75 604.57 509.59 607.68C511.42 610.79 512.34 614.36 512.34 618.41C512.34 622.46 511.42 626.04 509.59 629.14V629.15Z" fill="#CDCDC3"/>
<path d="M300.2 185.53C310.64 185.22 320.44 182.92 329.61 178.65C338.78 174.38 346.69 168.62 353.34 161.34C358.43 155.77 362.72 149.35 366.24 142.1C366.23 142.09 366.22 142.08 366.21 142.07C360.97 136.63 354.91 132.11 348.03 128.51C341.15 124.92 333.7 123.12 325.69 123.12C315.83 123.12 306.63 125.38 298.11 129.9C289.59 134.42 282.19 140.79 275.92 149C269.65 157.22 264.72 167.13 261.13 178.74C260.45 180.95 259.83 183.21 259.27 185.51C259.49 185.53 259.7 185.54 259.94 185.54H300.21L300.2 185.53ZM316.29 139.46C318.71 145.99 323.85 151.14 330.38 153.55C323.85 155.97 318.7 161.11 316.29 167.64C313.87 161.11 308.73 155.96 302.2 153.55C308.73 151.13 313.88 145.99 316.29 139.46Z" fill="#CC922F"/>
<path d="M289.02 126.66C300.31 122.04 312.54 119.73 325.69 119.73C341.1 119.73 355.32 122.86 368.36 129.13C369.23 129.55 370.09 129.98 370.94 130.42C373.74 121.68 375.16 112.38 375.16 102.52C375.16 90.82 373.18 80.07 369.23 70.26C365.27 60.46 359.98 51.92 353.34 44.64C346.7 37.37 338.79 31.68 329.61 27.56C320.44 23.45 310.64 21.24 300.2 20.92H265.15C261.36 20.92 258.82 23.69 257.56 29.22C256.29 34.76 255.66 40.06 255.66 45.12V150.27C256.87 148.89 258.13 147.54 259.43 146.24C267.85 137.82 277.71 131.3 289.01 126.67L289.02 126.66Z" fill="#CC922F"/>
<path d="M374.37 241.44H411.21V102.52C411.21 117.07 408.44 129.88 402.91 140.94C401.14 144.47 399.17 147.81 396.99 150.96C392.62 157.29 387.41 162.88 381.36 167.72C380.96 168.04 380.55 168.37 380.14 168.69C370.49 176.13 359.18 181.66 346.22 185.29C333.25 188.93 319.33 190.75 304.47 190.75H259.94C259.24 190.75 258.62 190.84 258.09 191.01C256.52 199.25 255.74 208.05 255.74 217.41C255.74 231.59 257.9 244.42 262.22 255.93C266.54 267.44 272.26 277.19 279.36 285.2C286.47 293.21 294.6 299.43 303.76 303.84C312.92 308.26 322.24 310.47 331.72 310.47C335.83 310.47 340.77 309.81 346.54 308.47C352.31 307.13 357.91 305.29 363.38 302.92C368.83 300.56 373.46 297.79 377.28 294.6C381.09 291.42 382.99 287.97 382.99 284.28L382.68 260.24C382.68 256.75 382.22 253.47 381.3 250.38C380.38 247.3 377.96 245.04 374.06 243.6C373.93 243.54 373.6 243.37 373.6 243.37V241.44H374.37Z" fill="#CC922F"/>
<path d="M380.14 37.04C389.79 44.32 397.38 53.34 402.91 64.08C408.44 74.84 411.21 87.64 411.21 102.5V81.33C411.21 45.17 381.9 15.85 345.73 15.85H312.27C324.22 16.36 335.54 18.04 346.22 20.9C359.18 24.39 370.49 29.76 380.14 37.03V37.04Z" fill="#CC922F"/>
<path d="M411.21 243.38C411.12 243.42 411.02 243.46 410.93 243.5C410.03 243.88 409.12 244.25 408.27 244.73C407.56 245.13 406.88 245.6 406.26 246.14C405.69 246.64 405.17 247.2 404.74 247.82C403.99 248.88 403.57 250.07 403.24 251.32C402.9 252.61 402.64 253.93 402.45 255.25C402.22 256.9 402.12 258.57 402.12 260.24V312.32H411.22V243.39L411.21 243.38Z" fill="#CC922F"/>
<path d="M393.79 307.23C391.33 305.28 388.35 304.3 384.86 304.3C381.16 304.3 377.36 304.87 373.46 306C369.56 307.13 365.45 308.31 361.13 309.54C357.79 310.49 354.23 311.42 350.47 312.31H398.35C397.3 310.52 395.8 308.82 393.8 307.23H393.79Z" fill="#CC922F"/>
<path d="M268.3 311.66C268.3 311.66 268.46 311.73 268.48 311.73L269.86 312.31H308.14C303.1 311.2 298.16 309.72 293.33 307.84C281.42 303.22 270.94 296.65 261.9 288.12C259.71 286.06 257.63 283.89 255.67 281.63V286.1C255.67 291.48 256.38 296.54 257.8 301.28C259.21 305.97 262.71 309.43 268.3 311.64V311.66Z" fill="#CC922F"/>
<path d="M212.97 311.73C218.66 309.52 222.22 306.03 223.64 301.29C225.06 296.54 225.78 291.49 225.78 286.11V45.11C225.78 39.73 225.07 34.67 223.64 29.93C222.22 25.18 218.66 21.71 212.97 19.49C212.96 19.48 211.59 18.89 211.59 18.89L211.56 312.33L212.96 311.74L212.97 311.73Z" fill="#CC922F"/>
</svg>
